<svg xmlns="http://www.w3.org/2000/svg" viewBox="0 0 1640 624" fill="none">
  <defs>
    <linearGradient id="bgGradient" x1="0" y1="0" x2="1640" y2="624" gradientUnits="userSpaceOnUse">
      <stop offset="0" stop-color="#111827"/>
      <stop offset="1" stop-color="#0F172A"/>
    </linearGradient>

    <radialGradient id="glowRight" cx="0" cy="0" r="1" gradientUnits="userSpaceOnUse" gradientTransform="translate(1350 160) rotate(130) scale(560 460)">
      <stop offset="0" stop-color="#3B82F6" stop-opacity="0.28"/>
      <stop offset="1" stop-color="#3B82F6" stop-opacity="0"/>
    </radialGradient>

    <radialGradient id="glowLeft" cx="0" cy="0" r="1" gradientUnits="userSpaceOnUse" gradientTransform="translate(340 520) rotate(20) scale(420 300)">
      <stop offset="0" stop-color="#1D4ED8" stop-opacity="0.18"/>
      <stop offset="1" stop-color="#1D4ED8" stop-opacity="0"/>
    </radialGradient>

    <pattern id="dots" x="0" y="0" width="36" height="36" patternUnits="userSpaceOnUse">
      <circle cx="2" cy="2" r="1.4" fill="#1F2937"/>
    </pattern>

    <filter id="softBlur" x="-20%" y="-20%" width="140%" height="140%">
      <feGaussianBlur stdDeviation="18"/>
    </filter>
  </defs>

  <rect width="1640" height="624" fill="url(#bgGradient)"/>
  <rect width="1640" height="624" fill="url(#dots)"/>
  <rect width="1640" height="624" fill="url(#glowRight)"/>
  <rect width="1640" height="624" fill="url(#glowLeft)"/>

  <g opacity="0.16" stroke="#60A5FA" stroke-width="20" stroke-linecap="round" stroke-linejoin="round">
    <path d="M116 262H446c38 0 69-31 69-69 0-38-31-69-69-69-30 0-56 19-65 47"/>
    <path d="M116 334H548c31 0 56-25 56-56s-25-56-56-56"/>
    <path d="M116 414H392c38 0 69 31 69 69 0 38-31 69-69 69-30 0-56-19-65-47"/>
  </g>

  <g opacity="0.08">
    <circle cx="220" cy="122" r="98" fill="#3B82F6" filter="url(#softBlur)"/>
    <circle cx="1520" cy="82" r="84" fill="#60A5FA" filter="url(#softBlur)"/>
  </g>

  <g opacity="0.28">
    <rect x="210" y="160" width="178" height="178" rx="44" fill="#1F2937" stroke="#374151" stroke-width="2"/>
    <g transform="translate(238 188) scale(7.3)" stroke="white" stroke-width="2" stroke-linecap="round" stroke-linejoin="round">
      <path d="M17.7 7.7a2.5 2.5 0 1 1 1.8 4.3H2"/>
      <path d="M9.6 4.6A2 2 0 1 1 11 8H2"/>
      <path d="M12.6 19.4A2 2 0 1 0 14 16H2"/>
    </g>
    <circle cx="374" cy="324" r="18" fill="#3B82F6"/>
  </g>

  <g transform="translate(620 126)">
    <rect x="0" y="0" width="288" height="42" rx="21" fill="#172554" fill-opacity="0.82" stroke="#2563EB" stroke-width="1.5"/>
    <text
      x="144"
      y="27"
      text-anchor="middle"
      font-family="Inter, -apple-system, BlinkMacSystemFont, 'Segoe UI', sans-serif"
      font-size="18"
      font-weight="600"
      fill="#BFDBFE"
      letter-spacing="0.2"
    >Marketplace de Kitesurf en Colombia</text>

    <text
      x="0"
      y="152"
      font-family="Inter, -apple-system, BlinkMacSystemFont, 'Segoe UI', sans-serif"
      font-size="88"
      font-weight="800"
      fill="white"
      letter-spacing="-2.6"
    >Quiver Co.</text>

    <text
      x="0"
      y="215"
      font-family="Inter, -apple-system, BlinkMacSystemFont, 'Segoe UI', sans-serif"
      font-size="31"
      font-weight="500"
      fill="#D1D5DB"
      letter-spacing="0.15"
    >Compra y vende equipo con confianza.</text>

    <text
      x="0"
      y="264"
      font-family="Inter, -apple-system, BlinkMacSystemFont, 'Segoe UI', sans-serif"
      font-size="31"
      font-weight="500"
      fill="#D1D5DB"
      letter-spacing="0.15"
    >Hecho para riders, spots y viento en Colombia.</text>

    <g transform="translate(0 324)">
      <rect width="248" height="58" rx="18" fill="#F9FAFB"/>
      <text
        x="124"
        y="38"
        text-anchor="middle"
        font-family="Inter, -apple-system, BlinkMacSystemFont, 'Segoe UI', sans-serif"
        font-size="25"
        font-weight="700"
        fill="#111827"
      >quiverkite.com</text>
    </g>

    <rect x="0" y="410" width="240" height="4" rx="2" fill="#3B82F6" fill-opacity="0.65"/>
    <circle cx="270" cy="412" r="8" fill="#3B82F6"/>
  </g>
</svg>
